<svg width="500" height="500" viewBox="0 0 500 500" fill="none" xmlns="http://www.w3.org/2000/svg">
<g clip-path="url(#clip0_17_498)">
<path d="M0 150C0 67.1573 67.1573 0 150 0H350C432.843 0 500 67.1573 500 150V350C500 432.843 432.843 500 350 500H150C67.1573 500 0 432.843 0 350V150Z" fill="#00040F"/>
<g filter="url(#filter0_f_17_498)">
<path d="M26 160.4C26 86.1729 86.1729 26 160.4 26H339.6C413.827 26 474 86.1729 474 160.4V339.6C474 413.827 413.827 474 339.6 474H160.4C86.1729 474 26 413.827 26 339.6V160.4Z" fill="url(#paint0_radial_17_498)"/>
<path d="M26 160.4C26 86.1729 86.1729 26 160.4 26H339.6C413.827 26 474 86.1729 474 160.4V339.6C474 413.827 413.827 474 339.6 474H160.4C86.1729 474 26 413.827 26 339.6V160.4Z" stroke="black"/>
</g>
<g filter="url(#filter1_f_17_498)">
<circle cx="246" cy="250" r="181" fill="white" fill-opacity="0.6"/>
</g>
<path d="M246 100C216.333 100 187.332 108.797 162.664 125.28C137.997 141.762 118.771 165.189 107.418 192.597C96.0649 220.006 93.0944 250.166 98.8822 279.264C104.67 308.361 118.956 335.088 139.934 356.066C160.912 377.044 187.639 391.33 216.736 397.118C245.834 402.906 275.994 399.935 303.402 388.582C330.811 377.229 354.238 358.003 370.72 333.336C387.203 308.668 396 279.667 396 250L336 250C336 267.8 330.722 285.201 320.832 300.001C310.943 314.802 296.887 326.337 280.441 333.149C263.996 339.961 245.9 341.743 228.442 338.271C210.984 334.798 194.947 326.226 182.36 313.64C169.774 301.053 161.202 285.016 157.729 267.558C154.257 250.1 156.039 232.004 162.851 215.558C169.663 199.113 181.198 185.057 195.999 175.168C210.799 165.278 228.2 160 246 160L246 100Z" fill="white"/>
<path d="M242.955 296.767C217.069 295.027 197.492 272.622 199.233 246.955C201.19 221.069 223.378 201.492 249.263 203.233C274.931 205.19 294.508 227.378 292.767 253.263C291.027 278.931 268.622 298.508 242.955 296.767Z" fill="url(#paint1_radial_17_498)"/>
<path fill-rule="evenodd" clip-rule="evenodd" d="M276 100H357H396V139L396 220H357V167.794L322.395 202.398C315.431 191.245 306.093 181.727 295.087 174.552L330.64 139H276V100Z" fill="#5CE1E6"/>
</g>
<defs>
<filter id="filter0_f_17_498" x="-274.5" y="-274.5" width="1049" height="1049" filterUnits="userSpaceOnUse" color-interpolation-filters="sRGB">
<feFlood flood-opacity="0" result="BackgroundImageFix"/>
<feBlend mode="normal" in="SourceGraphic" in2="BackgroundImageFix" result="shape"/>
<feGaussianBlur stdDeviation="150" result="effect1_foregroundBlur_17_498"/>
</filter>
<filter id="filter1_f_17_498" x="-685" y="-681" width="1862" height="1862" filterUnits="userSpaceOnUse" color-interpolation-filters="sRGB">
<feFlood flood-opacity="0" result="BackgroundImageFix"/>
<feBlend mode="normal" in="SourceGraphic" in2="BackgroundImageFix" result="shape"/>
<feGaussianBlur stdDeviation="375" result="effect1_foregroundBlur_17_498"/>
</filter>
<radialGradient id="paint0_radial_17_498" cx="0" cy="0" r="1" gradientUnits="userSpaceOnUse" gradientTransform="translate(250 250) rotate(90) scale(224)">
<stop stop-color="#BCA5FF" stop-opacity="0"/>
<stop offset="1" stop-color="#214D76"/>
</radialGradient>
<radialGradient id="paint1_radial_17_498" cx="0" cy="0" r="1" gradientUnits="userSpaceOnUse" gradientTransform="translate(265.834 236.586) rotate(93.8705) scale(60.3049)">
<stop offset="0.00887753" stop-color="#DEF9FA"/>
<stop offset="0.1723" stop-color="#BEF3F5"/>
<stop offset="0.4204" stop-color="#9DEDF0"/>
<stop offset="0.5512" stop-color="#7DE7EB"/>
<stop offset="0.7154" stop-color="#5CE1E6"/>
<stop offset="1" stop-color="#33BBCF"/>
</radialGradient>
<clipPath id="clip0_17_498">
<rect width="500" height="500" rx="150" fill="white"/>
</clipPath>
</defs>
</svg>
