<svg width="35" height="35" viewBox="0 0 35 35" fill="none" xmlns="http://www.w3.org/2000/svg">
  <g clip-path="url(#clip0_868_2284)">
    <path
      d="M17.5 0C27.166 0 35 7.83398 35 17.5C35 27.166 27.166 35 17.5 35C7.83398 35 0 27.166 0 17.5C0 7.83398 7.83398 0 17.5 0Z"
      fill="#0052FF" />
    <path
      d="M17.5034 23.6523C14.106 23.6523 11.3511 20.9009 11.3511 17.5C11.3511 14.0991 14.106 11.3477 17.5034 11.3477C20.5488 11.3477 23.0781 13.5693 23.5635 16.4746H29.7603C29.2373 10.1582 23.9497 5.19531 17.5 5.19531C10.7051 5.19531 5.19531 10.7051 5.19531 17.5C5.19531 24.2949 10.7051 29.8047 17.5 29.8047C23.9497 29.8047 29.2373 24.8418 29.7603 18.5254H23.5601C23.0713 21.4307 20.5488 23.6523 17.5034 23.6523Z"
      fill="white" />
  </g>
  <defs>
    <clipPath id="clip0_868_2284">
      <rect width="35" height="35" fill="white" />
    </clipPath>
  </defs>
</svg>