<svg width="388" height="100" viewBox="0 0 388 100" fill="none" xmlns="http://www.w3.org/2000/svg">
<path d="M257.222 50.9375C257.222 46.2167 258.276 42 260.384 38.2875C262.539 34.5292 265.449 31.6187 269.116 29.5562C272.828 27.4479 276.976 26.3937 281.559 26.3937C286.922 26.3937 291.62 27.7687 295.653 30.5188C299.687 33.2688 302.505 37.0729 304.109 41.9312H293.041C291.941 39.6396 290.382 37.9208 288.366 36.775C286.395 35.6292 284.103 35.0562 281.491 35.0562C278.695 35.0562 276.197 35.7208 273.997 37.05C271.843 38.3333 270.147 40.1667 268.909 42.55C267.718 44.9333 267.122 47.7292 267.122 50.9375C267.122 54.1 267.718 56.8958 268.909 59.325C270.147 61.7083 271.843 63.5646 273.997 64.8938C276.197 66.1771 278.695 66.8187 281.491 66.8187C284.103 66.8187 286.395 66.2458 288.366 65.1C290.382 63.9083 291.941 62.1667 293.041 59.875H304.109C302.505 64.7792 299.687 68.6063 295.653 71.3563C291.666 74.0604 286.968 75.4125 281.559 75.4125C276.976 75.4125 272.828 74.3812 269.116 72.3187C265.449 70.2104 262.539 67.3 260.384 63.5875C258.276 59.875 257.222 55.6583 257.222 50.9375Z" fill="#5CE1E6"/>
<path d="M309.855 55.8188C309.855 51.9688 310.612 48.5542 312.124 45.575C313.683 42.5958 315.768 40.3042 318.38 38.7C321.039 37.0958 323.995 36.2937 327.249 36.2937C330.091 36.2937 332.566 36.8667 334.674 38.0125C336.828 39.1583 338.547 40.6021 339.83 42.3437V36.9125H349.524V75H339.83V69.4313C338.593 71.2188 336.874 72.7083 334.674 73.9C332.52 75.0458 330.022 75.6188 327.18 75.6188C323.972 75.6188 321.039 74.7937 318.38 73.1437C315.768 71.4937 313.683 69.1792 312.124 66.2C310.612 63.175 309.855 59.7146 309.855 55.8188ZM339.83 55.9562C339.83 53.6187 339.372 51.625 338.455 49.975C337.539 48.2792 336.301 46.9958 334.743 46.125C333.185 45.2083 331.512 44.75 329.724 44.75C327.937 44.75 326.287 45.1854 324.774 46.0562C323.262 46.9271 322.024 48.2104 321.062 49.9062C320.145 51.5562 319.687 53.5271 319.687 55.8188C319.687 58.1104 320.145 60.1271 321.062 61.8688C322.024 63.5646 323.262 64.8708 324.774 65.7875C326.333 66.7042 327.983 67.1625 329.724 67.1625C331.512 67.1625 333.185 66.7271 334.743 65.8563C336.301 64.9396 337.539 63.6562 338.455 62.0062C339.372 60.3104 339.83 58.2937 339.83 55.9562Z" fill="#5CE1E6"/>
<path d="M368.55 24.125V75H358.925V24.125H368.55Z" fill="#5CE1E6"/>
<path d="M387.684 24.125V75H378.059V24.125H387.684Z" fill="#5CE1E6"/>
<path d="M173.913 75H164.288L142.494 42.0688V75H132.869V26.9438H142.494L164.288 59.9438V26.9438H173.913V75Z" fill="#2A364E"/>
<path d="M213.055 27.0125V34.7813H193.049V47.0875H208.38V54.7188H193.049V75H183.424V27.0125H213.055Z" fill="#2A364E"/>
<path d="M252.537 27.0125V34.7813H239.749V75H230.124V34.7813H217.337V27.0125H252.537Z" fill="#2A364E"/>
<path d="M50 0C40.1109 -1.17926e-07 30.4439 2.93245 22.2215 8.42652C13.999 13.9206 7.59041 21.7295 3.80603 30.8658C0.0216434 40.0021 -0.968525 50.0555 0.960734 59.7545C2.88999 69.4536 7.65203 78.3627 14.6447 85.3553C21.6373 92.348 30.5464 97.11 40.2455 99.0393C49.9445 100.969 59.9978 99.9784 69.1342 96.194C78.2705 92.4096 86.0794 86.001 91.5735 77.7785C97.0675 69.5561 100 59.8891 100 50L80 50C80 55.9335 78.2405 61.7336 74.9441 66.6671C71.6476 71.6006 66.9623 75.4458 61.4805 77.7164C55.9987 79.987 49.9667 80.5811 44.1473 79.4236C38.3279 78.266 32.9824 75.4088 28.7868 71.2132C24.5912 67.0176 21.734 61.6721 20.5764 55.8527C19.4189 50.0333 20.013 44.0013 22.2836 38.5195C24.5542 33.0377 28.3994 28.3524 33.3329 25.0559C38.2664 21.7595 44.0666 20 50 20L50 0Z" fill="#2A364E"/>
<path d="M48.9849 65.5891C40.3565 65.0091 33.8308 57.5408 34.4109 48.9849C35.0634 40.3565 42.4592 33.8308 51.0876 34.4109C59.6435 35.0634 66.1692 42.4592 65.5891 51.0876C65.0091 59.6435 57.5408 66.1692 48.9849 65.5891Z" fill="url(#paint0_radial_17_499)"/>
<path fill-rule="evenodd" clip-rule="evenodd" d="M60 0H87H100V13V40H87V22.598L75.4651 34.1328C73.1438 30.4151 70.0309 27.2425 66.3624 24.8508L78.2132 13H60V0Z" fill="#5CE1E6"/>
<defs>
<radialGradient id="paint0_radial_17_499" cx="0" cy="0" r="1" gradientUnits="userSpaceOnUse" gradientTransform="translate(56.6115 45.5287) rotate(93.8705) scale(20.1016)">
<stop offset="0.00887753" stop-color="#DEF9FA"/>
<stop offset="0.1723" stop-color="#BEF3F5"/>
<stop offset="0.4204" stop-color="#9DEDF0"/>
<stop offset="0.5512" stop-color="#7DE7EB"/>
<stop offset="0.7154" stop-color="#5CE1E6"/>
<stop offset="1" stop-color="#33BBCF"/>
</radialGradient>
</defs>
</svg>
